{
    "asset" : {
        "generator" : "Khronos glTF Blender I/O v0.9.36",
        "version" : "2.0"
    },
    "scene" : 0,
    "scenes" : [
        {
            "name" : "Scene",
            "nodes" : [
                0,
                1
            ]
        }
    ],
    "nodes" : [
        {
            "mesh" : 0,
            "name" : "branches4d"
        },
        {
            "mesh" : 1,
            "name" : "leaf19d"
        }
    ],
    "meshes" : [
        {
            "name" : "branches4",
            "primitives" : [
                {
                    "attributes" : {
                        "POSITION" : 0,
                        "NORMAL" : 1,
                        "TEXCOORD_0" : 2
                    },
                    "indices" : 3
                }
            ]
        },
        {
            "name" : "leaf19",
            "primitives" : [
                {
                    "attributes" : {
                        "POSITION" : 4,
                        "NORMAL" : 5,
                        "TEXCOORD_0" : 6
                    },
                    "indices" : 7
                }
            ]
        }
    ],
    "accessors" : [
        {
            "bufferView" : 0,
            "componentType" : 5126,
            "count" : 1617,
            "max" : [
                2.7610249519348145,
                10.323452949523926,
                3.598668098449707
            ],
            "min" : [
                -3.748960018157959,
                0,
                -2.054466962814331
            ],
            "type" : "VEC3"
        },
        {
            "bufferView" : 1,
            "componentType" : 5126,
            "count" : 1617,
            "type" : "VEC3"
        },
        {
            "bufferView" : 2,
            "componentType" : 5126,
            "count" : 1617,
            "type" : "VEC2"
        },
        {
            "bufferView" : 3,
            "componentType" : 5123,
            "count" : 5796,
            "type" : "SCALAR"
        },
        {
            "bufferView" : 4,
            "componentType" : 5126,
            "count" : 952,
            "max" : [
                5.090600967407227,
                10.072837829589844,
                6.0616888999938965
            ],
            "min" : [
                -5.535130023956299,
                3.1150128841400146,
                -4.014525890350342
            ],
            "type" : "VEC3"
        },
        {
            "bufferView" : 5,
            "componentType" : 5126,
            "count" : 952,
            "type" : "VEC3"
        },
        {
            "bufferView" : 6,
            "componentType" : 5126,
            "count" : 952,
            "type" : "VEC2"
        },
        {
            "bufferView" : 7,
            "componentType" : 5123,
            "count" : 1428,
            "type" : "SCALAR"
        }
    ],
    "bufferViews" : [
        {
            "buffer" : 0,
            "byteLength" : 19404,
            "byteOffset" : 0
        },
        {
            "buffer" : 0,
            "byteLength" : 19404,
            "byteOffset" : 19404
        },
        {
            "buffer" : 0,
            "byteLength" : 12936,
            "byteOffset" : 38808
        },
        {
            "buffer" : 0,
            "byteLength" : 11592,
            "byteOffset" : 51744
        },
        {
            "buffer" : 0,
            "byteLength" : 11424,
            "byteOffset" : 63336
        },
        {
            "buffer" : 0,
            "byteLength" : 11424,
            "byteOffset" : 74760
        },
        {
            "buffer" : 0,
            "byteLength" : 7616,
            "byteOffset" : 86184
        },
        {
            "buffer" : 0,
            "byteLength" : 2856,
            "byteOffset" : 93800
        }
    ],
    "buffers" : [
        {
            "byteLength" : 96656,
            "uri" : "data:application/octet-stream;base64,"
        }
    ]
}
